<?xml version="1.0" standalone="no"?>
<!DOCTYPE svg PUBLIC "-//W3C//DTD SVG 20010904//EN"
 "http://www.w3.org/TR/2001/REC-SVG-20010904/DTD/svg10.dtd">
<svg version="1.0" xmlns="http://www.w3.org/2000/svg"
 width="100.000000pt" height="100.000000pt" viewBox="0 0 100.000000 100.000000"
 preserveAspectRatio="xMidYMid meet">

<g transform="translate(0.000000,100.000000) scale(0.100000,-0.100000)"
fill="#000000" stroke="none">
<path d="M60 502 l0 -439 233 -6 c127 -3 325 -3 440 0 l207 6 0 438 0 439
-440 0 -440 0 0 -438z m152 211 c21 -24 35 -178 18 -198 -18 -21 -116 -21
-124 1 -8 21 -8 199 1 207 14 15 90 7 105 -10z m88 -72 c0 -88 1 -90 27 -103
l28 -13 25 100 c25 98 26 100 54 100 29 0 30 -1 52 -100 13 -55 23 -106 24
-112 0 -21 -41 -15 -47 6 -9 36 -63 33 -63 -4 0 -8 -23 -12 -75 -13 l-75 -2 0
115 0 115 25 0 c25 0 25 -1 25 -89z m176 -176 c3 -8 -7 -49 -24 -92 l-30 -78
24 -3 c18 -3 24 -10 24 -28 0 -22 -3 -24 -55 -24 -66 0 -66 0 -25 109 l29 80
-22 3 c-14 2 -23 11 -25 26 -3 20 0 22 48 22 35 0 52 -4 56 -15z m62 -107 l3
-118 -26 0 -25 0 0 121 c0 119 0 120 23 117 21 -3 22 -7 25 -120z m85 91 l24
-31 11 31 c7 21 18 31 31 31 31 0 33 -14 9 -75 l-21 -56 21 -45 c28 -57 28
-64 -3 -64 -18 0 -26 7 -31 25 -3 14 -9 25 -13 25 -15 -1 -32 -18 -29 -31 2
-9 -7 -15 -25 -17 -26 -3 -28 -1 -22 20 4 13 14 35 21 50 19 38 17 57 -11 107
-14 23 -25 47 -25 52 0 21 40 7 63 -22z m185 1 c9 -16 19 -30 22 -30 3 0 11
14 17 30 7 19 18 30 30 30 32 0 33 -9 9 -74 l-24 -62 24 -44 c29 -56 29 -60 1
-60 -16 0 -28 9 -35 25 -11 23 -14 24 -34 14 -14 -8 -18 -14 -10 -17 20 -6 3
-22 -24 -22 -29 0 -30 4 -3 69 l22 52 -27 48 c-31 59 -32 71 -6 71 13 0 28
-12 38 -30z"/>
<path d="M157 674 c-14 -14 -7 -35 11 -32 9 2 17 10 17 17 0 16 -18 25 -28 15z"/>
<path d="M150 560 c0 -13 7 -20 20 -20 13 0 20 7 20 20 0 13 -7 20 -20 20 -13
0 -20 -7 -20 -20z"/>
<path d="M426 617 c-5 -15 -6 -31 -2 -34 11 -11 18 5 14 34 l-4 28 -8 -28z"/>
</g>
</svg>
